<svg xmlns="http://www.w3.org/2000/svg" xmlns:xlink="http://www.w3.org/1999/xlink" width="20" height="16" viewBox="0 0 20 16"><defs><filter id="a" width="200%" height="200%" x="-50%" y="-50%" filterUnits="objectBoundingBox"><feOffset dy="3" in="SourceAlpha" result="shadowOffsetOuter1"/><feGaussianBlur in="shadowOffsetOuter1" result="shadowBlurOuter1" stdDeviation="1"/><feColorMatrix in="shadowBlurOuter1" result="shadowMatrixOuter1" values="0 0 0 0 0 0 0 0 0 0 0 0 0 0 0 0 0 0 0.161 0"/><feOffset dy="3" in="SourceAlpha" result="shadowOffsetOuter2"/><feGaussianBlur in="shadowOffsetOuter2" result="shadowBlurOuter2" stdDeviation="1"/><feColorMatrix in="shadowBlurOuter2" result="shadowMatrixOuter2" values="0 0 0 0 0 0 0 0 0 0 0 0 0 0 0 0 0 0 0.112 0"/><feMerge><feMergeNode in="shadowMatrixOuter1"/><feMergeNode in="shadowMatrixOuter2"/><feMergeNode in="SourceGraphic"/></feMerge></filter><path id="b" d="M607.48 97.092c.096.097.145.244.145.44 0 .227-.08.414-.244.56-.162.147-.357.22-.585.22H592.83c-.228 0-.423-.073-.586-.22-.163-.146-.244-.333-.244-.56 0-.164.05-.294.146-.39l.098-.148 6.64-7.617c.294-.293.603-.44.928-.44.326 0 .635.147.928.44l6.64 7.617.1.098z"/></defs><g fill="none" fill-rule="evenodd"><g filter="url(#a)" opacity=".7" transform="translate(-590 -88)"><g><use fill="#fff" xlink:href="#b"/><use xlink:href="#b"/><use xlink:href="#b"/></g></g></g></svg>